<svg width="120" height="100" viewBox="0 0 120 100" fill="none" xmlns="http://www.w3.org/2000/svg">
    <g id="Frame 1" clip-path="url(#clip0_1_2)">
        <g id="lightGroup">
            <path id="light1" opacity="0.7"
                d="M46 48.268C47.3333 49.0378 47.3333 50.9623 46 51.7321L11.5 71.6506C10.1667 72.4204 8.5 71.4582 8.5 69.9186L8.5 30.0814C8.5 28.5418 10.1667 27.5796 11.5 28.3494L46 48.268Z"
                fill="#65B3FB" />
        </g>
        <g id="darkGroup">
            <path id="dark1" opacity="0.7"
                d="M64 48.268C65.3333 49.0378 65.3333 50.9623 64 51.7321L29.5 71.6506C28.1667 72.4204 26.5 71.4582 26.5 69.9186L26.5 30.0814C26.5 28.5418 28.1667 27.5796 29.5 28.3494L64 48.268Z"
                fill="#9463FD" />
            <path id="dark2" opacity="0.7"
                d="M46 48.268C47.3333 49.0378 47.3333 50.9623 46 51.7321L11.5 71.6506C10.1667 72.4204 8.5 71.4582 8.5 69.9186L8.5 30.0814C8.5 28.5418 10.1667 27.5796 11.5 28.3494L46 48.268Z"
                fill="#9463FD" />
        </g>
    </g>
    <defs>
        <clipPath id="clip0_1_2">
            <rect width="120" height="100" fill="white" />
        </clipPath>
    </defs>
</svg>